<svg xmlns="http://www.w3.org/2000/svg" width="62" height="62"><path fill="#ED1C24" d="M14.874 38.467c-2.888 2.499-7.712 9.423-10.197 4.214-2.487-5.206 11.963-5.743 10.197-4.214z"/><path fill="#ED1C24" d="M58.418 16.09C47.79-10.341 37.14 26.659 33.63 24.708c-3.508-1.951 9.374-28.266-7.81-23.018-10.97 3.352 4.025 23.7 1.844 25.803-2.182 2.105-25.072-25.295-25.601-.118.123 10.686 19.302 6.213 19.601 8.676.297 2.463-23.582 16.082-9.624 22.885 9.101 4.436 13.684-9.138 16.523-17.436.209 6.747 1.563 21.375 11.313 18.625s3.231-15.695-4.625-22.938c4.292 3.304 10.639 8.006 12.567 7.879 4.171-.275 12.103-9.717 7.879-13.322-2.584-2.205-12.593-2.062-19.978-1.619 3.567-3.84 27.826-1.278 22.699-14.035z"/><path fill="#009245" d="M14.683 28.79c2.237 1.738 6.459 5.966 6.459 5.966s-.993.248-3.227 2.734c-2.235 2.48-2.736 5.959-2.736 5.959s3.229-2.977 4.721-3.977c1.492-.986 5.714-3.225 5.714-3.225s7.756-.75 10.683.244c2.276.779 3.724 2.486 5.712 2.979 1.986.5 4.468.5 4.468.5s-7.205-6.951-5.465-5.711c1.738 1.242-4.715-2.98-4.715-2.98s7.252-.785 8.687-1.242c3.18-1.014 7.25-2.124 9.444-3.478 2.127-1.318 3.726-3.728 3.726-3.728s-8.693 1.244-11.677 1.99c-2.98.742-9.44 1.239-9.44 1.239s.501-4.718.993-5.963c.499-1.244 2.979-8.201 2.979-8.201s-5.957 5.217-7.696 8.695c-1.735 3.478-4.966 7.948-4.966 7.948s-6.497-.663-10.433-2.236c-3.942-1.567-11.18-3.973-11.18-3.973l7.949 6.46z"/><path fill="#ED1C24" d="M19.472 16.875c.662-.545-6.15-13.879-9.423-11.482-3.273 2.396 8.763 12.025 9.423 11.482z"/></svg>