<svg xmlns="http://www.w3.org/2000/svg" height="62" width="62"><path d="M48.166 35.117c.271 19.277-5.834 26.427-17.5 26.427-9.29 0-17.5-11.96-17.5-26.554 0-14.596 8.345-25.405 17.635-25.405 9.29 0 17.16 10.937 17.365 25.532z" fill="#ed1c24"/><path d="M18.973 12.381c1.582 1.23 4.57 4.22 4.57 4.22s-.703.177-2.283 1.935c-1.582 1.756-1.936 4.217-1.936 4.217s2.285-2.109 3.34-2.813c1.055-.7 4.043-2.283 4.043-2.283s5.486-.53 7.556.174c1.613.551 2.637 1.758 4.043 2.107 1.406.354 3.162.354 3.162.354s-5.098-4.92-3.867-4.043c1.23.88-3.338-2.107-3.338-2.107s5.133-.555 6.148-.879c2.25-.717 5.13-1.502 6.682-2.46 1.504-.933 2.635-2.638 2.635-2.638s-6.15.88-8.26 1.408c-2.109.525-6.68.877-6.68.877s.354-3.338.703-4.219c.355-.88 2.111-5.802 2.111-5.802s-4.217 3.691-5.447 6.152c-1.228 2.46-3.515 5.623-3.515 5.623s-4.596-.469-7.38-1.582c-2.789-1.11-7.91-2.812-7.91-2.812z" fill="#009245"/></svg>